<?xml version="1.0" encoding="UTF-8" standalone="no"?>
<svg width="34px" height="27px" viewBox="0 0 34 27" version="1.1" xmlns="http://www.w3.org/2000/svg" xmlns:xlink="http://www.w3.org/1999/xlink">
    <!-- Generator: Sketch 3.8.3 (29802) - http://www.bohemiancoding.com/sketch -->
    <title>icon</title>
    <desc>Created with Sketch.</desc>
    <defs></defs>
    <g id="Page-1" stroke="none" stroke-width="1" fill="none" fill-rule="evenodd">
        <g id="Selfpubtalk" transform="translate(-703.000000, -2509.000000)" fill="#FFFFFF">
            <path d="M737,2512.19611 C735.749137,2512.73832 734.404605,2513.10461 732.993772,2513.2694 C734.433846,2512.42585 735.540036,2511.0901 736.060747,2509.49836 C734.712816,2510.27961 733.220043,2510.84673 731.631052,2511.15239 C730.358768,2509.8276 728.545886,2509 726.539542,2509 C722.687337,2509 719.563922,2512.05175 719.563922,2515.81599 C719.563922,2516.35023 719.625631,2516.87051 719.744631,2517.36936 C713.947281,2517.08513 708.807493,2514.37143 705.367027,2510.24755 C704.766586,2511.25422 704.422505,2512.42502 704.422505,2513.67423 C704.422505,2516.03909 705.653988,2518.12536 707.52569,2519.34766 C706.382269,2519.31228 705.306678,2519.00562 704.366236,2518.49514 C704.365443,2518.52355 704.365443,2518.55212 704.365443,2518.58086 C704.365443,2521.88329 706.769928,2524.63802 709.961002,2525.26462 C709.375691,2525.42044 708.75944,2525.50366 708.123298,2525.50366 C707.673818,2525.50366 707.236919,2525.46081 706.810897,2525.3814 C707.698638,2528.08929 710.274653,2530.05995 713.327178,2530.11477 C710.939864,2531.94306 707.93222,2533.0328 704.663963,2533.0328 C704.100921,2533.0328 703.545702,2533.00041 703,2532.93745 C706.087035,2534.87156 709.753601,2536 713.692848,2536 C726.523278,2536 733.5397,2525.6138 733.5397,2516.60621 C733.5397,2516.31069 733.5329,2516.01683 733.519471,2515.72429 C734.882192,2514.76347 736.064714,2513.5631 736.999887,2512.19611 L737,2512.19611 Z" id="icon"></path>
        </g>
    </g>
</svg>